<?xml version="1.0" encoding="utf-8"?>
<!-- Generator: Adobe Illustrator 26.0.1, SVG Export Plug-In . SVG Version: 6.00 Build 0)  -->
<svg version="1.1" xmlns="http://www.w3.org/2000/svg" xmlns:xlink="http://www.w3.org/1999/xlink" x="0px" y="0px"
	 viewBox="0 0 1080 1080" style="enable-background:new 0 0 1080 1080;" xml:space="preserve">
<style type="text/css">
	.st0{display:none;}
</style>
<g id="Calque_1" class="st0">
	
		<image style="display:inline;overflow:visible;" width="720" height="720" xlink:href="x-timeline-auto-refresh-logo-AA.png"  transform="matrix(1.2428 0 0 1.2428 83 77)">
	</image>
</g>
<g id="Calque_2">
	<g>
		<path d="M390.9,262l361.7,526h-86.4L304.4,262H390.9 M409.8,226H236l411.2,598H821L409.8,226L409.8,226z"/>
	</g>
	<polygon points="236,824 478,547 508.3,565 288.8,824 	"/>
	<polygon points="543,468 751.6,226 800.3,226 578,489 	"/>
	<g>
		<path d="M300.5,322.5l29.6,44.1l-4,4.8C315,382.9,284,424,284,524v36h36h25.4l-86.2,98L181,560.4h23.1l36.4,0l-0.4-36.4
			c0-0.4-0.2-36.9,8.5-81.5C255.9,405.9,270.6,356.4,300.5,322.5 M308,269c0,0-21.5,17.4-27.3,22.1
			c-78.3,78.3-76.6,233.3-76.6,233.3H106L258,714l167-190c0,0-66,0-105,0c0-99,32.7-128.3,32.7-128.3L375,369L308,269L308,269z"/>
	</g>
	<g>
		<path d="M794.7,388l78.3,97.6h-23.1h-36.4l0.4,36.4c0,0.4,0.3,35.6-8.3,80.1c-7.2,37.1-22,87.3-52.1,121.4l-29.6-44.1l4-4.8
			C739,663.1,770,622,770,522v-36h-36h-25.4L794.7,388 M796,332L629,522c0,0,66,0,105,0c0,99-32.7,128.3-32.7,128.3L679,677l67,100
			c0,0,21.5-17.4,27.3-22.1c78.3-78.3,76.6-233.3,76.6-233.3H948L796,332L796,332z"/>
	</g>
</g>
</svg>
